<?xml version="1.0" encoding="UTF-8" standalone="no"?>
<!-- Created with Inkscape (http://www.inkscape.org/) -->

<svg
   width="96.979996mm"
   height="204.67554mm"
   viewBox="0 0 96.979996 204.67553"
   version="1.1"
   id="svg5"
   inkscape:version="1.1 (c68e22c387, 2021-05-23)"
   sodipodi:docname="0000.svg"
   xmlns:inkscape="http://www.inkscape.org/namespaces/inkscape"
   xmlns:sodipodi="http://sodipodi.sourceforge.net/DTD/sodipodi-0.dtd"
   xmlns="http://www.w3.org/2000/svg"
   xmlns:svg="http://www.w3.org/2000/svg">
  <sodipodi:namedview
     id="namedview7"
     pagecolor="#ffffff"
     bordercolor="#666666"
     borderopacity="1.0"
     inkscape:pageshadow="2"
     inkscape:pageopacity="0.0"
     inkscape:pagecheckerboard="0"
     inkscape:document-units="mm"
     showgrid="false"
     inkscape:zoom="0.74029882"
     inkscape:cx="320.8164"
     inkscape:cy="444.41513"
     inkscape:window-width="1920"
     inkscape:window-height="1017"
     inkscape:window-x="-8"
     inkscape:window-y="-8"
     inkscape:window-maximized="1"
     inkscape:current-layer="layer1" />
  <defs
     id="defs2">
    <marker
       id="DistanceX"
       orient="auto"
       refX="0"
       refY="0"
       style="overflow:visible">
      <path
         d="M 3,-3 -3,3 M 0,-5 V 5"
         style="stroke:#000000;stroke-width:0.5"
         id="path11" />
    </marker>
    <pattern
       id="Hatch"
       patternUnits="userSpaceOnUse"
       width="8"
       height="8"
       x="0"
       y="0">
      <path
         d="M8 4 l-4,4"
         stroke="#000000"
         stroke-width="0.25"
         linecap="square"
         id="path14" />
      <path
         d="M6 2 l-4,4"
         stroke="#000000"
         stroke-width="0.25"
         linecap="square"
         id="path16" />
      <path
         d="M4 0 l-4,4"
         stroke="#000000"
         stroke-width="0.25"
         linecap="square"
         id="path18" />
    </pattern>
    <symbol
       id="$MODEL_SPACE" />
    <symbol
       id="$PAPER_SPACE" />
  </defs>
  <g
     inkscape:label="Layer 1"
     inkscape:groupmode="layer"
     id="layer1"
     transform="translate(90.663282,-3.8102439)">
    <path
       style="fill:none;stroke:#000000;stroke-width:3;paint-order:stroke fill markers"
       d="M -80.273283,34.749978 V 206.98579"
       id="path25" />
    <path
       style="fill:none;stroke:#000000;stroke-width:3;paint-order:stroke fill markers"
       d="M -29.473283,42.59752 V 206.98579"
       id="path27" />
    <path
       style="fill:none;stroke:#000000;stroke-width:3;paint-order:stroke fill markers"
       d="M -80.273283,42.59752 H -4.0732835"
       id="path29" />
    <path
       style="fill:none;stroke:#000000;stroke-width:3;paint-order:stroke fill markers;stroke-linejoin:round;stroke-linecap:round"
       d="M -80.273283,34.749978 H -4.0732835"
       id="path31" />
    <path
       style="fill:none;stroke:#000000;stroke-width:3;paint-order:stroke fill markers"
       d="M -54.873283,42.59752 V 206.98579"
       id="path33" />
    <path
       style="fill:none;stroke:#000000;stroke-width:3;paint-order:stroke fill markers"
       d="M -4.0732835,34.749978 V 206.98579"
       id="path35" />
    <path
       d="m 4.8167164,14.200241 a 8.8899999,8.8899999 0 1 0 -17.7799994,0 8.8899999,8.8899999 0 1 0 17.7799994,0 z"
       style="fill:none;stroke:#000000;stroke-width:3;paint-order:stroke fill markers"
       id="path37" />
    <path
       d="m -45.983283,14.200241 a 8.89,8.89 0 1 0 -17.78,0 8.89,8.89 0 1 0 17.78,0 z"
       style="fill:none;stroke:#000000;stroke-width:3;paint-order:stroke fill markers"
       id="path39" />
    <path
       d="m -20.583283,14.200241 a 8.89,8.89 0 1 0 -17.78,0 8.89,8.89 0 1 0 17.78,0 z"
       style="fill:none;stroke:#000000;stroke-width:3;paint-order:stroke fill markers"
       id="path41" />
    <path
       d="m -71.383283,14.200241 a 8.8899999,8.8899999 0 1 0 -17.779999,0 8.8899999,8.8899999 0 1 0 17.779999,0 z"
       style="fill:none;stroke:#000000;stroke-width:3;paint-order:stroke fill markers"
       id="path43" />
    <path
       style="fill:none;stroke:#000000;stroke-width:3;paint-order:stroke fill markers"
       d="M -80.273283,83.695248 H -4.0732835"
       id="path45" />
    <path
       style="fill:none;stroke:#000000;stroke-width:3;paint-order:stroke fill markers"
       d="M -80.273283,124.79298 H -4.0732835"
       id="path47" />
    <path
       style="fill:none;stroke:#000000;stroke-width:3;paint-order:stroke fill markers"
       d="M -80.273283,165.88806 H -4.0732835"
       id="path49" />
    <path
       style="fill:none;stroke:#000000;stroke-width:3;paint-order:stroke fill markers"
       d="M -80.273283,206.98579 H -4.0732835"
       id="path51" />
    <path
       style="fill:#000000;stroke:#000000;stroke-width:15.3162;stroke-linecap:round;stroke-linejoin:round;paint-order:stroke fill markers"
       d="m 45.9274,131.70357 v -8.10483 h 137.7822 137.7822 v 8.10483 8.10484 H 183.7096 45.9274 Z"
       id="path1197"
       transform="matrix(0.26458333,0,0,0.26458333,-90.663282,3.8102439)" />
  </g>
</svg>
